<?xml version="1.0" standalone="no"?>
<!DOCTYPE svg PUBLIC "-//W3C//DTD SVG 20010904//EN"
 "http://www.w3.org/TR/2001/REC-SVG-20010904/DTD/svg10.dtd">
<svg version="1.0" xmlns="http://www.w3.org/2000/svg"
 width="576.000000pt" height="433.000000pt" viewBox="0 0 576.000000 433.000000"
 preserveAspectRatio="xMidYMid meet">

<g transform="translate(0.000000,433.000000) scale(0.100000,-0.100000)"
fill="#000000" stroke="none">
<path d="M3046 3878 c-14 -13 -29 -39 -33 -58 -12 -49 -63 -73 -168 -78 -107
-5 -129 4 -144 61 -13 53 -50 87 -93 87 -16 0 -79 -15 -140 -32 -139 -41 -174
-68 -164 -127 3 -22 9 -46 12 -55 9 -25 -83 -115 -151 -147 -33 -16 -65 -29
-71 -29 -7 0 -29 16 -50 35 -30 27 -48 35 -77 35 -35 0 -47 -8 -109 -67 -94
-91 -128 -136 -135 -176 -4 -30 0 -40 32 -75 l36 -41 -16 -63 c-18 -70 -50
-131 -89 -167 -23 -22 -28 -23 -72 -12 -58 15 -98 1 -119 -39 -25 -49 -67
-233 -62 -273 7 -50 21 -65 73 -78 36 -9 45 -17 57 -48 8 -20 18 -55 22 -78
l7 -43 157 0 158 0 7 87 c19 250 124 474 298 639 177 167 379 251 623 261 149
6 240 -8 379 -58 253 -91 468 -309 566 -571 29 -79 49 -174 56 -271 l7 -87
166 0 167 0 -1 90 c0 101 5 110 71 128 86 24 94 68 46 229 -37 125 -45 139
-83 158 -23 13 -37 14 -67 5 -51 -14 -47 -15 -97 31 -51 47 -78 88 -99 148
l-15 41 40 47 c60 69 53 93 -58 205 -127 128 -163 139 -230 76 -30 -29 -32
-30 -84 -19 -71 16 -128 42 -171 80 -33 29 -36 34 -27 64 30 105 3 137 -151
177 -139 36 -171 37 -204 8z"/>
<path d="M2858 2689 c-101 -16 -204 -99 -263 -213 -21 -40 -22 -45 -6 -26 11
14 21 29 21 34 0 5 2 7 5 4 3 -3 -9 -38 -26 -78 -36 -85 -59 -184 -59 -257 0
-40 -4 -53 -15 -53 -8 0 -24 -9 -35 -20 -17 -17 -20 -33 -20 -98 0 -91 15
-122 60 -122 26 0 30 -5 40 -42 6 -24 32 -86 58 -138 59 -120 159 -227 236
-253 137 -46 259 10 364 168 47 69 112 215 112 250 0 8 8 15 18 15 10 0 28 7
40 16 20 14 22 24 22 100 0 88 -10 124 -35 124 -21 0 -26 27 -30 187 -1 81 -8
160 -14 176 -20 51 -56 89 -128 134 -121 75 -246 109 -345 92z"/>
<path d="M1625 2277 c-53 -26 -122 -93 -151 -148 -16 -31 -16 -33 0 -20 14 12
13 6 -5 -35 -31 -72 -39 -101 -49 -184 -4 -41 -13 -76 -19 -78 -31 -10 -41
-35 -41 -101 0 -71 12 -95 54 -102 13 -3 25 -21 37 -56 63 -185 188 -312 308
-313 115 0 243 130 301 306 17 51 27 65 46 70 33 8 44 32 44 93 0 59 -14 101
-34 101 -17 0 -31 110 -27 206 4 111 -37 167 -175 235 -72 36 -95 43 -162 46
-66 3 -84 1 -127 -20z"/>
<path d="M3872 2280 c-24 -11 -55 -29 -70 -40 -32 -25 -102 -117 -102 -134 0
-6 5 -4 10 4 17 26 11 1 -15 -59 -13 -32 -30 -99 -36 -148 -10 -75 -16 -91
-33 -99 -19 -8 -21 -17 -21 -94 l0 -85 32 -10 c29 -8 35 -17 53 -71 58 -173
189 -304 305 -304 56 0 136 42 184 96 43 49 103 157 122 221 9 31 22 48 46 63
33 19 33 20 33 94 0 68 -2 76 -25 93 -24 17 -25 22 -29 153 -4 149 -12 178
-67 224 -120 101 -286 142 -387 96z"/>
<path d="M3052 1289 c-62 -76 -116 -139 -121 -139 -4 0 -63 61 -130 135 -68
74 -126 135 -130 135 -4 0 -83 -63 -174 -140 -92 -77 -175 -140 -184 -140 -34
-1 -98 -37 -132 -75 -150 -171 -117 -520 58 -623 l46 -27 650 3 c649 3 650 3
695 26 191 95 215 499 38 650 -26 23 -57 39 -82 43 -30 5 -83 39 -220 141
-100 74 -186 138 -191 143 -6 4 -57 -50 -123 -132z"/>
<path d="M1855 1135 c-50 -63 -95 -113 -101 -112 -5 1 -54 50 -109 110 -54 59
-102 107 -107 107 -5 0 -70 -51 -144 -112 -74 -62 -138 -114 -142 -115 -4 -1
-19 -4 -34 -7 -40 -9 -95 -62 -123 -116 -82 -163 -31 -402 99 -461 36 -16 67
-19 241 -19 110 0 318 3 462 7 l262 6 -34 41 c-77 94 -110 207 -103 355 5 107
28 183 76 253 l30 44 -81 59 c-44 33 -85 63 -91 67 -7 4 -48 -39 -101 -107z"/>
<path d="M3730 1211 l-44 -39 47 -51 c159 -178 158 -493 -2 -664 l-45 -49 424
7 c466 8 469 8 515 69 53 70 70 124 70 231 0 89 -3 107 -29 163 -34 73 -78
116 -138 134 -35 10 -166 100 -334 230 -8 6 -42 -29 -104 -107 -50 -63 -95
-115 -100 -115 -4 0 -54 52 -111 115 -57 63 -103 115 -104 115 0 0 -20 -18
-45 -39z"/>
</g>
</svg>
