<svg width="2173" height="1446" viewBox="0 0 2173 1446" fill="none" xmlns="http://www.w3.org/2000/svg">
<g filter="url(#filter0_d_19_2348)">
<path d="M941.524 110.716C869.629 171.449 745.945 276.253 666.739 343.972L522.34 466.512L553.413 492.848L584.486 519.183L658.209 456.838C908.013 245.618 1068.86 111.791 1073.74 111.791C1076.17 112.328 1125.53 152.1 1182.19 200.471L1285.77 288.077L1287.59 238.631L1289.42 188.647L1260.18 161.774C1244.34 147.263 1195.59 104.804 1151.73 67.7196L1072.52 5.68628e-05L941.524 110.716Z" fill="black"/>
<path d="M416.677 846.725C413.649 858.551 398.508 864.116 387.153 857.507C379.205 852.638 378.069 852.986 367.85 862.725C357.63 872.464 357.63 873.16 363.308 881.507C371.635 892.638 368.228 900.29 353.088 903.768C342.49 906.203 341.354 908.29 340.219 920.811C339.083 933.333 340.219 935.072 348.925 937.159C362.551 940.29 368.607 953.855 361.794 965.681C356.873 974.376 357.252 975.42 367.471 982.724C376.555 989.333 379.962 990.029 388.667 986.898C401.536 982.376 418.948 991.072 418.948 1001.85C418.948 1007.77 421.597 1008.81 433.709 1008.81C446.2 1008.81 448.849 1007.42 450.742 1000.46C453.77 989.681 473.074 981.681 481.401 987.942C486.321 991.768 488.971 991.072 498.433 982.724C507.517 974.724 508.653 971.942 505.246 965.333C498.812 952.116 504.111 940.29 517.358 937.855C528.714 936.116 529.092 935.072 527.957 921.159C526.821 907.594 525.686 906.203 516.223 905.159C501.461 903.42 495.027 890.551 503.354 879.073C509.031 871.073 508.653 870.029 498.812 861.334C489.349 852.986 487.835 852.638 480.644 857.507C469.667 864.464 454.905 859.247 451.499 847.421C449.228 839.768 446.957 838.377 434.088 838.377C421.597 838.377 418.569 839.768 416.677 846.725ZM455.662 860.986C479.508 870.377 490.863 883.246 496.162 907.594C498.055 916.985 497.298 918.725 492.756 916.985C488.592 915.594 487.078 917.681 487.078 924.638C487.078 945.507 459.447 970.55 436.737 970.55C418.191 970.55 397.751 958.377 389.046 941.681C384.504 933.333 381.097 924.638 381.097 922.551C381.097 916.985 374.663 917.333 372.013 922.551C370.499 924.985 370.499 919.42 371.635 909.681C373.906 889.507 387.91 871.42 407.971 862.029C423.868 854.377 437.873 854.029 455.662 860.986Z" fill="black"/>
<path fill-rule="evenodd" clip-rule="evenodd" d="M993.769 163.488C997.422 165.635 1012.04 155.975 1026.65 142.56C1049.78 120.021 1067.44 109.825 1057.7 123.241C1055.87 125.924 1057.09 128.607 1061.35 128.607C1065.01 128.607 1061.96 132.9 1054.66 138.267C1046.74 144.169 1042.48 151.146 1044.91 154.366C1050.39 162.415 1060.74 162.952 1060.74 154.902C1060.74 152.219 1057.7 151.146 1053.44 153.292C1049.18 155.439 1048.57 154.902 1051 151.146C1053.44 147.926 1059.53 146.853 1065.01 148.463C1070.49 150.609 1073.53 149.536 1071.09 146.853C1069.27 143.633 1073.53 140.95 1080.84 140.95C1091.19 139.876 1092.41 140.95 1085.1 144.706C1080.23 147.389 1078.4 150.072 1081.45 150.072C1085.1 150.072 1082.66 153.292 1076.57 157.049C1066.22 163.488 1066.22 164.562 1077.18 172.074C1082.28 175.506 1084.86 177.25 1085.16 176.986C1085.47 176.713 1083.34 174.299 1079.01 169.391C1070.49 159.732 1071.09 159.732 1084.49 163.488C1094.23 166.171 1097.28 165.635 1094.84 161.342C1092.41 158.122 1093.62 155.439 1096.67 155.439C1100.32 155.439 1103.36 158.122 1103.36 161.342C1103.36 164.025 1106.41 165.098 1109.45 163.488C1113.11 161.878 1115.54 161.342 1115.54 162.952C1115.54 164.025 1117.37 169.391 1119.8 174.221C1122.85 182.27 1121.63 182.807 1110.67 177.441C1100.93 172.611 1098.49 173.148 1099.71 179.587C1100.32 183.88 1103.36 189.247 1106.41 191.393C1108.84 193.54 1109.45 192.466 1107.02 188.71C1104.58 185.49 1105.8 182.27 1108.84 182.27C1112.5 182.27 1115.54 185.49 1116.15 188.71C1116.15 192.466 1119.8 188.71 1124.07 180.124C1130.76 167.781 1132.59 166.708 1136.24 174.221C1138.07 179.051 1138.07 186.027 1135.63 189.247C1133.81 193.003 1134.42 194.076 1136.85 191.393C1142.33 187.1 1171.56 208.565 1167.3 214.468C1166.08 216.615 1170.34 217.688 1177.65 217.151C1185.56 216.615 1203.83 227.348 1224.53 244.52C1243.4 259.545 1279.33 288.524 1304.29 308.916C1326.5 326.581 1376.18 367.61 1420.75 404.413C1426.27 408.975 1431.72 413.472 1437.02 417.852L1523.48 490.297V760.223V1030.15H1550.88H1706.14H1737.19C1764.59 1030.15 1767.64 1031.22 1760.94 1038.2C1754.24 1045.17 1668.39 1046.25 1057.7 1046.25C447.012 1046.25 361.159 1045.17 354.461 1038.2C347.764 1031.22 361.159 1030.15 468.319 1030.15H590.092L593.136 760.223L596.789 490.834L686.901 414.632C736.219 372.775 779.449 340.04 783.102 341.65C786.146 343.26 786.755 342.187 784.928 339.503C780.058 332.527 845.815 277.254 853.73 281.547C857.383 283.694 859.21 283.157 858.601 280.474C855.557 272.425 904.266 230.031 912.79 232.714C917.661 234.324 922.532 232.177 924.358 227.884C926.794 223.591 931.056 221.445 935.318 223.591C938.971 225.738 937.753 222.518 932.883 217.151C926.794 210.175 926.185 208.565 931.665 211.249C937.145 213.932 943.233 211.785 948.713 204.272C956.019 195.686 962.717 193.54 977.939 194.613C991.942 196.223 1002.29 193.003 1014.47 183.88C1023.6 177.441 1028.47 171.538 1024.82 171.538C1021.17 171.538 1019.95 167.245 1022.39 161.878C1026.04 153.829 1024.21 153.829 1011.43 163.488C1003.51 169.391 995.596 175.294 993.769 176.367C991.943 177.441 997.422 176.367 1005.95 174.221C1021.17 169.928 1021.17 169.928 1009.6 181.734C1001.68 189.783 995.596 191.393 991.334 187.637C982.81 180.124 973.677 180.661 979.156 188.71C982.201 192.466 980.983 193.003 975.503 190.32C969.414 187.1 970.023 184.417 979.156 178.514C985.245 174.221 990.116 168.318 988.898 165.635C988.289 162.415 990.116 161.342 993.769 163.488ZM1610.2 977.802C1609.73 978.475 1609.24 978.94 1608.72 979.169C1607.69 979.715 1606.74 978.269 1605.92 975.466L1610.2 977.802ZM1040.04 157.585C1037.61 152.219 1040.65 144.17 1046.13 138.803C1059.53 125.924 1054.05 125.924 1036.39 138.267C1023.6 147.389 1024.21 166.171 1037.61 166.171C1041.26 166.171 1041.87 162.415 1040.04 157.585ZM1211.22 322.707L1203.83 316.428C1170.09 287.782 1134.69 258.155 1110.57 237.979C1099 228.297 1090.03 220.791 1085.1 216.615L1057.7 194.076L906.701 321.258C823.896 391.556 746.57 458.099 735.002 468.832L713.691 489.76V760.223V1030.69L739.264 1029.08C763.009 1027.47 767.271 1024.78 791.017 995.268C805.021 977.559 816.589 961.46 817.198 959.313C817.198 957.167 809.892 952.337 800.759 948.581C770.925 936.238 768.489 925.505 768.489 784.371C768.489 640.555 770.316 632.504 805.63 602.453L826.331 585.281L856.166 605.136C881.738 622.308 938.362 689.924 938.971 703.876C938.971 715.146 926.794 704.413 897.568 667.386C867.734 630.895 862.863 627.138 846.424 628.748C834.855 629.821 823.287 635.724 815.981 644.31C800.759 662.019 805.021 671.142 854.948 729.635C891.48 772.565 894.524 775.249 917.661 776.322L942.016 777.395L921.923 773.102C910.963 770.419 901.222 767.736 900.004 766.662C879.911 745.734 831.202 675.435 835.464 673.288C838.508 671.679 842.162 672.752 843.988 675.435C845.815 678.118 852.512 679.191 859.21 677.582C867.125 675.972 881.738 685.095 909.137 708.706C941.406 736.611 948.104 740.367 951.148 732.318C954.802 723.195 956.019 723.195 964.544 734.465C971.241 743.051 974.894 744.124 977.33 739.294C978.547 735.538 974.894 725.878 968.806 718.366C957.846 704.413 957.846 704.413 975.503 689.387C986.463 680.265 996.813 675.972 1002.9 677.582C1010.82 680.265 1011.43 679.191 1005.95 670.605C997.422 656.653 994.987 656.653 970.023 677.045C948.713 694.217 948.713 694.217 963.326 678.655C971.85 670.069 981.592 660.409 985.854 657.19C989.507 654.506 1005.34 638.944 1020.56 622.845C1046.13 595.477 1048.57 591.184 1048.57 563.816C1048.57 546.107 1044.91 531.081 1040.04 526.251C1032.13 518.739 1032.74 516.055 1046.13 504.786C1058.31 494.054 1061.35 493.517 1064.4 501.03C1066.22 505.859 1071.7 509.616 1076.57 509.616C1087.53 509.616 1087.53 517.129 1075.97 525.715C1063.79 534.837 1063.18 593.33 1075.36 597.087C1080.23 598.697 1085.1 613.186 1087.53 633.041C1091.8 664.702 1091.19 667.386 1074.75 682.411C1065.62 690.997 1057.7 702.267 1057.7 707.633C1057.7 712.463 1038.22 735.538 1013.86 758.613C982.201 789.201 964.543 801.543 949.931 804.227C929.838 807.983 929.838 807.983 931.665 835.888L933.491 863.793H895.742C875.04 863.793 859.21 865.403 861.645 867.013C863.472 868.622 900.004 869.696 942.016 869.696L1018.73 868.622L1036.39 884.721C1054.66 900.284 1054.66 900.821 1054.66 965.216V1030.15H1091.19H1127.72V926.042C1127.72 840.182 1125.89 820.862 1118.59 815.496C1107.02 806.91 1107.02 799.397 1119.2 799.397C1124.07 799.397 1126.5 796.714 1124.68 794.031C1122.85 790.811 1111.89 788.664 1100.93 788.664C1088.75 788.664 1076.57 784.371 1069.88 777.932C1058.92 767.199 1059.53 767.199 1117.37 767.199H1176.43V708.706C1176.43 674.899 1173.99 648.603 1170.34 646.457C1167.3 644.847 1164.25 637.334 1164.25 629.821C1164.25 619.625 1167.3 616.942 1178.86 616.942C1189.82 616.942 1196.52 611.576 1205.05 596.55C1211.74 585.281 1225.14 573.475 1236.1 568.645C1254.36 561.133 1263.5 541.814 1248.88 541.814C1245.23 541.814 1244.01 537.521 1246.45 531.618C1248.27 525.715 1247.67 519.812 1244.01 518.202C1236.71 513.909 1192.87 530.544 1186.78 539.667C1184.34 543.96 1178.26 547.18 1173.99 547.18C1169.12 547.18 1162.42 550.936 1158.16 555.229C1148.42 565.425 1122.24 565.425 1117.98 555.229C1111.89 541.814 1121.02 518.739 1130.76 522.495C1135.63 524.105 1141.11 523.032 1142.94 519.812C1145.38 517.129 1149.64 516.055 1152.68 517.665C1160.6 521.958 1261.06 479.564 1265.32 470.442C1267.76 464.002 1271.41 465.075 1283.59 475.808C1300.64 490.834 1301.25 493.517 1289.07 493.517C1282.98 493.517 1279.94 499.42 1279.94 512.299C1279.94 525.178 1282.98 531.081 1289.07 531.081C1293.94 531.081 1298.2 533.228 1298.2 536.447C1298.2 539.13 1293.94 541.814 1289.07 541.814C1273.85 541.814 1278.72 555.23 1298.81 568.109C1309.16 575.085 1321.34 588.501 1326.21 598.697C1332.91 612.649 1338.39 616.942 1349.95 616.942C1362.13 616.942 1365.18 619.625 1365.18 629.821C1365.18 637.334 1362.74 644.847 1359.09 646.457C1355.43 648.603 1353 718.903 1353 840.181V1030.69L1379.18 1029.08L1404.75 1027.47V758.076V488.687L1349.95 441.464C1321.56 416.433 1260.6 364.658 1211.22 322.707ZM952.975 212.858C950.54 223.054 956.019 220.908 963.326 209.102C966.979 203.199 968.806 198.369 968.197 198.369C963.326 198.906 954.193 207.492 952.975 212.858ZM1210.52 243.446C1215.4 245.056 1217.83 244.52 1216 241.3C1214.18 238.08 1209.92 235.934 1206.26 235.934C1197.74 235.934 1199.57 239.69 1210.52 243.446ZM1261.67 525.715C1270.19 525.715 1268.98 513.909 1259.23 502.64C1254.97 497.81 1248.88 493.517 1245.84 494.053C1228.79 496.2 1164.25 524.105 1164.25 529.471C1164.25 538.594 1174.6 538.057 1178.26 528.935C1182.52 519.812 1240.36 502.103 1249.49 506.933C1252.54 508.543 1255.58 513.909 1255.58 518.202C1255.58 522.495 1258.63 525.715 1261.67 525.715ZM646.716 1003.32V764.516C646.716 596.551 644.89 525.715 640.019 525.715C635.757 525.715 634.539 596.552 636.365 768.272L639.41 1011.37L670.462 1012.98C689.337 1014.05 701.514 1012.44 701.514 1009.22C701.514 1006 689.337 1003.32 674.115 1003.32H646.716ZM1480.86 781.688C1480.86 654.507 1482.69 544.497 1484.51 537.521C1488.17 526.251 1481.47 521.422 1472.95 529.471C1470.51 531.081 1468.68 638.945 1468.68 768.272V1003.32H1441.28C1426.06 1003.32 1413.89 1005.46 1413.89 1008.68C1413.89 1011.37 1429.11 1014.05 1447.37 1014.05H1480.86V781.688ZM1133.81 547.18C1137.46 547.18 1139.9 544.497 1139.9 541.814C1139.9 538.594 1137.46 536.447 1133.81 536.447C1130.76 536.447 1127.72 538.594 1127.72 541.814C1127.72 544.497 1130.76 547.18 1133.81 547.18ZM1304.9 595.477C1314.64 595.477 1296.37 575.085 1281.76 569.182C1263.5 561.669 1262.28 562.206 1242.19 571.865C1225.75 579.378 1212.96 594.404 1212.96 605.673C1212.96 608.893 1225.75 611.576 1243.4 611.576C1270.8 611.576 1273.85 609.966 1277.5 598.16C1281.15 584.208 1288.46 580.988 1295.16 590.111C1296.98 592.794 1301.25 595.477 1304.9 595.477ZM1002.9 653.433C1005.95 656.116 1072.92 614.796 1072.92 610.503C1072.92 604.6 1066.22 605.673 1046.13 615.869C1028.47 624.992 999.249 650.213 1002.9 653.433ZM1261.06 633.041C1315.25 633.041 1353.61 630.895 1356.04 627.675C1358.48 623.918 1326.82 622.308 1265.32 622.308C1206.26 622.308 1170.34 624.455 1170.34 627.675C1170.34 630.895 1204.44 633.041 1261.06 633.041ZM1321.95 700.12C1323.77 679.192 1324.99 660.409 1323.77 658.263C1321.34 653.97 1203.22 654.506 1197.74 658.799C1195.91 660.409 1194.69 685.631 1194.69 714.609C1194.69 766.662 1194.69 767.736 1208.7 766.126C1216 765.053 1222.7 761.296 1222.7 757.54C1223.31 754.32 1224.53 740.904 1225.14 728.025C1226.96 706.023 1226.96 706.023 1230.62 735.001L1234.27 764.516H1258.63H1282.98L1284.81 717.292L1284.82 716.894C1286.63 671.673 1286.68 670.605 1301.25 670.605C1315.86 670.605 1316.47 672.215 1317.69 703.876L1318.9 737.684L1321.95 700.12ZM1281.15 909.943C1282.98 805.837 1284.2 794.031 1294.55 783.835C1310.38 768.272 1303.68 764.516 1284.2 777.932C1270.8 787.054 1259.84 788.664 1204.44 788.664C1150.86 788.664 1139.9 790.274 1139.9 796.714C1139.9 801.007 1144.77 804.763 1150.86 804.763C1160.6 805.3 1160.6 805.3 1150.86 812.276C1141.11 818.716 1139.9 830.522 1139.9 924.969V1030.15H1158.16H1176.43V917.456C1176.43 820.863 1177.65 804.763 1185.56 804.763C1193.48 804.763 1194.69 820.326 1194.69 914.773C1194.69 1003.85 1196.52 1024.78 1203.22 1024.78C1214.18 1024.78 1219.05 979.704 1219.05 882.038C1219.05 817.106 1220.27 804.763 1228.18 804.763C1236.1 804.763 1237.32 820.326 1237.32 914.773V1024.78H1258.02H1279.33L1281.15 909.943ZM907.919 960.386C952.975 960.386 981.592 958.24 981.592 955.02C981.592 951.8 954.193 949.654 912.181 949.654C871.996 949.654 840.944 951.8 838.509 955.02C836.073 958.24 861.037 960.386 907.919 960.386Z" fill="black"/>
<path d="M1063.67 304.909C1063.67 307.618 1067.71 310.328 1072.31 310.328C1076.92 310.328 1080.95 307.618 1080.95 304.909C1080.95 301.658 1076.92 299.491 1072.31 299.491C1067.71 299.491 1063.67 301.658 1063.67 304.909Z" fill="black"/>
<path d="M1086.71 346.025C1086.71 357.113 1139.65 399.883 1146.43 394.602C1148.27 392.49 1135.35 378.762 1118.11 363.449C1093.48 341.273 1086.71 337.576 1086.71 346.025Z" fill="black"/>
<path d="M1020.94 368.062C1006.29 382.837 998.359 393.919 1002.63 394.974C1009.96 397.085 1063.67 355.397 1063.67 347.481C1063.67 336.399 1043.53 345.898 1020.94 368.062Z" fill="black"/>
<path d="M1031.24 411.555C1018.38 422.985 1009.81 433.871 1012.26 436.048C1017.77 440.403 1063.67 406.112 1063.67 397.404C1063.67 385.974 1055.11 389.784 1031.24 411.555Z" fill="black"/>
<path d="M1086.71 397.043C1086.71 406.462 1130.4 441.922 1136.02 436.936C1137.89 435.827 1127.28 423.638 1112.93 410.895C1094.82 394.827 1086.71 390.395 1086.71 397.043Z" fill="black"/>
<path d="M1042.83 452.661C1029.34 470.915 1030.57 473.063 1048.35 462.862C1056.93 458.03 1063.67 450.513 1063.67 446.755C1063.67 434.943 1053.87 437.628 1042.83 452.661Z" fill="black"/>
<path d="M1086.71 449.571C1086.71 455.928 1091.61 461.755 1099.56 463.874C1118.54 469.171 1119.15 464.403 1102.01 450.63C1086.71 438.446 1086.71 438.446 1086.71 449.571Z" fill="black"/>
<path d="M984.202 466.476C984.202 469.185 987.37 471.895 990.537 471.895C994.338 471.895 996.872 469.185 996.872 466.476C996.872 463.225 994.338 461.058 990.537 461.058C987.37 461.058 984.202 463.225 984.202 466.476Z" fill="black"/>
<path d="M1148.91 466.476C1148.91 469.185 1151.39 471.895 1154.49 471.895C1158.21 471.895 1162.55 469.185 1164.41 466.476C1166.27 463.225 1163.79 461.058 1158.83 461.058C1153.25 461.058 1148.91 463.225 1148.91 466.476Z" fill="black"/>
<path d="M865.403 490.464C859.914 494.797 855.644 502.381 855.644 506.714C855.644 511.048 851.984 514.298 847.105 514.298C822.097 514.298 804.409 563.049 819.048 592.842C822.707 600.426 824.537 593.925 824.537 570.091C825.147 546.257 828.197 534.34 835.516 527.298C842.835 520.798 846.495 520.256 848.325 525.131C849.545 528.381 847.715 534.34 844.055 537.59C833.686 546.799 836.126 587.425 848.325 599.884C853.814 605.842 873.332 620.468 891.021 632.927C916.638 650.261 928.837 655.136 947.745 655.136H971.532V592.3C971.532 537.048 970.313 527.84 958.724 515.381C931.276 483.963 886.141 472.046 865.403 490.464ZM922.737 495.339C954.454 509.964 965.433 530.007 965.433 576.05V617.218L945.915 616.676C931.276 616.134 929.447 615.051 939.816 613.426C947.135 612.343 953.234 607.467 953.234 603.134C953.234 598.801 949.575 596.092 945.915 597.175C940.426 597.717 937.376 589.05 936.156 569.008C934.326 544.632 935.546 540.299 943.475 543.007C948.965 545.174 953.234 544.09 953.234 541.924C953.234 535.965 934.326 528.381 925.787 530.007C900.78 535.965 886.141 535.965 886.141 529.465C885.531 512.673 873.942 539.757 873.942 557.632C873.942 567.924 870.893 580.383 867.843 584.717C863.573 590.134 861.743 579.3 861.743 548.424C861.743 488.839 878.212 474.755 922.737 495.339Z" fill="black"/>
<path d="M1066.56 494.056C1068.88 497.304 1072.94 498.387 1075.85 496.763C1083.98 491.891 1082.23 488.643 1071.78 488.643C1067.14 488.643 1064.81 491.35 1066.56 494.056Z" fill="black"/>
<path d="M1014.15 498.344C1014.15 501.527 1017.32 505.241 1020.48 506.833C1024.28 508.425 1026.82 506.302 1026.82 502.058C1026.82 497.283 1024.28 493.569 1020.48 493.569C1017.32 493.569 1014.15 495.691 1014.15 498.344Z" fill="black"/>
<path d="M1122.33 497.481C1119.75 499.038 1117.81 503.189 1117.81 506.302C1117.81 509.415 1121.04 508.896 1125.56 505.264C1129.43 502.151 1131.37 498 1130.08 496.444C1128.14 494.887 1124.27 495.406 1122.33 497.481Z" fill="black"/>
<path d="M1337.25 244.44L1336.65 323.91L1449.9 420.561L1562.55 517.213L1592.99 494.124C1610.04 481.237 1623.44 468.887 1623.44 466.202C1623.44 464.054 1586.29 429.689 1541.24 390.492L1459.03 319.614V242.293V165.508H1398.14H1337.25V244.44ZM1427.37 174.636C1410.93 175.71 1385.36 175.71 1369.53 174.636C1353.09 173.563 1366.48 173.026 1398.14 173.026C1429.81 173.026 1443.2 173.563 1427.37 174.636ZM1428.59 235.312C1428.59 237.997 1421.89 240.682 1413.37 240.682C1399.36 240.682 1398.75 242.293 1396.32 282.027L1394.49 323.91L1393.27 276.658L1392.06 229.943H1410.32C1420.67 229.943 1428.59 232.09 1428.59 235.312Z" fill="black"/>
<path d="M4 1120.27C4 1126.84 74.0216 1131.23 194.5 1131.23C314.978 1131.23 385 1126.84 385 1120.27C385 1113.7 314.978 1109.31 194.5 1109.31C74.0216 1109.31 4 1113.7 4 1120.27Z" fill="black"/>
<path fill-rule="evenodd" clip-rule="evenodd" d="M418 1258.59V1438H1083.5H1749V1258.59V1079.18H1083.5H418V1258.59ZM806.699 1258.59C777.252 1258.59 771.363 1252.61 771.363 1221.22C771.363 1197.29 764.296 1183.84 753.695 1183.84C739.56 1183.84 736.027 1203.28 736.027 1273.54C736.027 1343.81 739.56 1363.25 753.695 1363.25C764.296 1363.25 771.363 1348.3 771.363 1324.38C771.363 1291.48 776.074 1287 804.343 1291.48C826.723 1294.47 837.324 1304.94 839.68 1328.86C842.035 1348.3 851.458 1363.25 860.881 1363.25C873.838 1363.25 877.372 1340.82 877.372 1273.54C877.372 1203.28 873.838 1183.84 859.704 1183.84C849.103 1183.84 842.035 1197.29 842.035 1221.22C842.035 1252.61 836.146 1258.59 806.699 1258.59ZM1062.3 1363.25C1127.08 1363.25 1162.42 1263.08 1115.3 1209.26C1085.86 1176.36 1026.96 1177.86 1003.4 1210.75C958.645 1273.54 993.981 1363.25 1062.3 1363.25ZM1313.19 1273.54C1309.65 1273.54 1296.7 1252.61 1286.09 1228.69C1250.76 1153.94 1230.73 1170.38 1230.73 1273.54C1230.73 1343.81 1234.27 1363.25 1248.4 1363.25C1260.18 1363.25 1266.07 1348.3 1266.07 1315.4V1267.56L1286.09 1303.44C1291.39 1313.9 1296.68 1323.98 1300.81 1331.83L1300.82 1331.85C1304.94 1339.69 1307.89 1345.31 1308.47 1346.8C1310.83 1349.79 1322.61 1336.34 1335.57 1316.9L1359.12 1281.02L1360.3 1321.39C1360.3 1348.3 1366.19 1363.25 1377.97 1363.25C1389.35 1363.25 1389.08 1340.96 1388.55 1295.61C1388.42 1284.63 1388.27 1272.29 1388.27 1258.59C1388.27 1155.43 1380.32 1158.42 1342.63 1228.69C1329.68 1252.61 1316.72 1273.54 1313.19 1273.54ZM601.749 1243.64C641.796 1243.64 664.176 1237.66 659.465 1228.69C655.931 1219.72 626.484 1213.74 593.504 1213.74C561.701 1213.74 535.788 1219.72 535.788 1228.69C535.788 1236.17 565.235 1243.64 601.749 1243.64ZM594.681 1333.35C627.662 1333.35 653.575 1325.87 653.575 1318.39C653.575 1309.42 627.662 1303.44 594.681 1303.44C562.879 1303.44 535.788 1309.42 535.788 1318.39C535.788 1325.87 562.879 1333.35 594.681 1333.35ZM1595.87 1172.1C1598.82 1173.29 1620.91 1187.73 1622.38 1188.92C1623.85 1190.11 1629.74 1215.76 1622.38 1228.16C1615.01 1240.57 1612.07 1229.36 1609.13 1228.16C1606.18 1226.97 1582.62 1205.74 1582.62 1205.74C1582.62 1205.74 1567.9 1198.94 1556.12 1205.74C1544.34 1212.54 1542.87 1228.16 1542.87 1228.16C1542.87 1228.16 1538.45 1254.03 1542.87 1261.8C1547.29 1269.58 1592.93 1257.39 1595.87 1256.2C1598.82 1255 1600.29 1267.41 1600.29 1267.41C1600.29 1267.41 1601.76 1285.42 1595.87 1284.23C1589.99 1283.04 1544.34 1279.82 1538.45 1289.84C1532.57 1299.86 1536.98 1322.28 1538.45 1323.47C1539.92 1324.67 1556.12 1345.9 1556.12 1345.9C1556.12 1345.9 1575.26 1347.09 1582.62 1345.9C1589.99 1344.71 1609.13 1317.87 1609.13 1317.87C1609.13 1317.87 1622.38 1311.07 1626.79 1317.87C1631.21 1324.67 1622.38 1345.9 1622.38 1345.9C1622.38 1345.9 1601.76 1373.93 1595.87 1373.93C1589.99 1373.93 1550.23 1383.95 1547.29 1373.93C1544.34 1363.91 1514.9 1355.92 1507.53 1345.9C1500.17 1335.88 1507.53 1222.56 1507.53 1205.74C1507.53 1188.92 1547.29 1172.1 1547.29 1172.1C1547.29 1172.1 1592.93 1170.91 1595.87 1172.1Z" fill="black"/>
<path d="M1777 1129.4C1777 1136.52 1849.21 1141.27 1973 1141.27C2096.79 1141.27 2169 1136.52 2169 1129.4C2169 1122.28 2096.79 1117.53 1973 1117.53C1849.21 1117.53 1777 1122.28 1777 1129.4Z" fill="black"/>
<path d="M69.0824 1188.21C67.0019 1190.74 68.0421 1198.33 71.1629 1203.39C78.4448 1218.58 377 1217.31 377 1203.39C377 1192.01 78.4448 1176.83 69.0824 1188.21Z" fill="black"/>
<path d="M1786 1210.66C1786 1218.33 1845.87 1223.44 1946 1223.44C2046.13 1223.44 2106 1218.33 2106 1210.66C2106 1202.99 2046.13 1197.88 1946 1197.88C1845.87 1197.88 1786 1202.99 1786 1210.66Z" fill="black"/>
<path d="M117 1272.29C117 1279.14 168.538 1283.7 251 1283.7C333.462 1283.7 385 1279.14 385 1272.29C385 1265.44 333.462 1260.87 251 1260.87C168.538 1260.87 117 1265.44 117 1272.29Z" fill="black"/>
<path d="M1786 1281.42C1786 1288.81 1836.11 1293.74 1916.5 1293.74C1996.89 1293.74 2047 1288.81 2047 1281.42C2047 1274.02 1996.89 1269.09 1916.5 1269.09C1836.11 1269.09 1786 1274.02 1786 1281.42Z" fill="black"/>
<path d="M255.482 1352.63C258.59 1358.34 289.674 1364.05 323.867 1364.05C358.06 1364.05 385 1359.48 385 1352.63C385 1345.79 354.952 1341.22 316.614 1341.22C274.132 1341.22 251.337 1345.79 255.482 1352.63Z" fill="black"/>
<path d="M1779.49 1360.39C1782.62 1365.87 1813.94 1371.35 1848.4 1371.35C1882.85 1371.35 1910 1366.97 1910 1360.39C1910 1353.82 1879.72 1349.44 1841.09 1349.44C1798.28 1349.44 1775.31 1353.82 1779.49 1360.39Z" fill="black"/>
<path d="M1030.56 1254.41C1019.73 1298.65 1034.49 1331.42 1063.04 1324.86C1111.28 1316.67 1102.42 1231.47 1053.2 1229.83C1043.35 1229.83 1033.51 1241.3 1030.56 1254.41Z" fill="black"/>
<path d="M1639.11 852.512C1637.41 860.051 1638.54 866.648 1641.37 866.648C1643.63 866.648 1645.89 862.407 1645.89 857.224C1645.89 849.214 1649.84 847.801 1674.14 847.801C1698.44 847.801 1702.39 849.214 1702.39 857.224C1702.39 865.234 1706.91 866.648 1749.29 868.061C1774.72 868.532 1742.51 869.475 1676.97 869.946C1611.99 869.946 1566.22 868.532 1575.26 866.648L1592.21 862.878L1574.13 862.407L1555.48 861.936V918.477C1555.48 974.077 1555.48 975.019 1571.87 990.097L1588.25 1005.65L1693.35 1007.06L1798.45 1008.47V935.44V861.936H1756.07C1714.82 861.936 1713.69 861.465 1713.69 850.156C1713.69 838.848 1712.56 838.377 1677.53 838.377C1641.93 838.377 1641.37 838.377 1639.11 852.512ZM1789.41 893.976C1791.1 896.332 1790.54 902.457 1788.84 908.112C1786.02 918.477 1784.32 918.477 1673.57 918.477H1561.13V904.342V890.207H1673.57C1735.73 890.207 1787.71 892.091 1789.41 893.976ZM1611.99 932.613C1611.99 934.969 1600.69 937.325 1586.56 937.325C1572.43 937.325 1561.13 934.969 1561.13 932.613C1561.13 929.786 1572.43 927.901 1586.56 927.901C1600.69 927.901 1611.99 929.786 1611.99 932.613ZM1789.97 932.613C1787.71 935.44 1756.07 937.325 1713.13 937.325C1668.49 937.325 1640.24 935.44 1640.24 932.613C1640.24 929.786 1669.62 927.901 1717.08 927.901C1766.24 927.901 1792.23 929.786 1789.97 932.613Z" fill="black"/>
</g>
<defs>
<filter id="filter0_d_19_2348" x="0" y="0" width="2173" height="1446" filterUnits="userSpaceOnUse" color-interpolation-filters="sRGB">
<feFlood flood-opacity="0" result="BackgroundImageFix"/>
<feColorMatrix in="SourceAlpha" type="matrix" values="0 0 0 0 0 0 0 0 0 0 0 0 0 0 0 0 0 0 127 0" result="hardAlpha"/>
<feOffset dy="4"/>
<feGaussianBlur stdDeviation="2"/>
<feComposite in2="hardAlpha" operator="out"/>
<feColorMatrix type="matrix" values="0 0 0 0 0.402116 0 0 0 0 0.380632 0 0 0 0 0.380632 0 0 0 0.67 0"/>
<feBlend mode="normal" in2="BackgroundImageFix" result="effect1_dropShadow_19_2348"/>
<feBlend mode="normal" in="SourceGraphic" in2="effect1_dropShadow_19_2348" result="shape"/>
</filter>
</defs>
</svg>
