<svg width="390" height="343" viewBox="0 0 390 343" fill="none" xmlns="http://www.w3.org/2000/svg">
<path d="M312.889 190.214C304.551 191.288 296.048 196.855 291.177 204.502C289.444 207.185 289.361 207.521 290.682 206.246C291.59 205.307 292.416 204.301 292.416 203.966C292.416 203.63 292.581 203.496 292.829 203.697C293.076 203.898 292.086 206.246 290.682 208.929C287.71 214.631 285.811 221.272 285.811 226.169C285.811 228.852 285.481 229.724 284.573 229.724C283.913 229.724 282.592 230.328 281.684 231.066C280.28 232.206 280.033 233.279 280.033 237.639C280.033 243.744 281.271 245.823 284.986 245.823C287.132 245.823 287.463 246.158 288.288 248.64C288.783 250.25 290.93 254.409 293.076 257.897C297.947 265.947 306.202 273.124 312.559 274.868C323.869 277.954 333.94 274.198 342.609 263.599C346.489 258.971 351.855 249.177 351.855 246.829C351.855 246.293 352.515 245.823 353.341 245.823C354.166 245.823 355.652 245.353 356.643 244.75C358.294 243.811 358.459 243.14 358.459 238.042C358.459 232.139 357.633 229.724 355.57 229.724C353.836 229.724 353.423 227.913 353.093 217.18C353.01 211.747 352.433 206.447 351.937 205.374C350.286 201.953 347.314 199.404 341.37 196.386C331.381 191.355 321.062 189.074 312.889 190.214Z" fill="black"/>
<path d="M329.186 283.906C324.063 289.045 319.601 293.304 319.188 293.304C318.857 293.304 313.982 289.18 308.446 284.177C302.827 279.173 298.034 275.049 297.704 275.049C297.373 275.049 290.845 279.308 283.326 284.515C275.724 289.721 268.866 293.98 268.122 293.98C265.313 294.048 260.024 296.482 257.215 299.051C244.82 310.613 247.547 334.21 262.007 341.174L265.808 343L319.518 342.797C373.145 342.594 373.228 342.594 376.946 341.039C392.729 334.616 394.712 307.3 380.086 297.091C377.938 295.536 375.376 294.454 373.311 294.183C370.832 293.845 366.452 291.546 355.132 284.65C346.869 279.646 339.763 275.319 339.349 274.981C338.854 274.711 334.64 278.362 329.186 283.906Z" fill="black"/>
<path d="M76.9771 2.8976C74.5902 5.66931 74.2492 7.43312 73.4536 21.5436C72.4307 41.9535 73.2263 51.2765 76.5225 55.0561C79.9323 59.0877 85.729 58.9617 89.3662 54.8042C92.2077 51.7805 92.2077 51.4025 92.2077 29.6068V7.30714L88.9115 3.65352C84.8197 -0.75602 80.6143 -1.13398 76.9771 2.8976Z" fill="black"/>
<path d="M160.405 1.63761C158.927 2.51951 156.995 4.66129 156.199 6.29912C154.267 10.4567 154.153 48.1267 156.085 52.0323C157.904 55.9379 160.518 57.8277 164.042 57.9537C172.794 58.0797 174.044 54.4261 174.044 28.3468V7.30701L170.748 3.6534C167.111 -0.378181 164.724 -0.756142 160.405 1.63761Z" fill="black"/>
<path d="M252.243 1.8898C250.538 2.89769 248.833 4.91348 248.492 6.29934C248.037 7.81118 247.696 18.646 247.696 30.4888C247.81 51.0247 247.924 52.0326 250.31 54.9302C253.834 59.0878 259.631 58.9618 263.268 54.8043C266.109 51.7806 266.109 51.4026 266.109 30.6148C266.109 19.024 265.768 8.31513 265.427 6.80329C264.745 4.15756 259.517 0 256.789 0C255.994 0.125984 253.948 0.881905 252.243 1.8898Z" fill="black"/>
<path d="M15.9126 32.2518C10.7978 34.6455 4.88743 40.9449 2.15956 46.8662C0.113661 51.4018 0 56.0633 0 183.31C0 292.289 0.227322 315.722 1.59126 319.25C4.0918 325.801 9.77486 332.1 15.7989 334.998L21.482 337.644L132.87 337.392H249.771L246.787 328.825C245.934 324.573 244.23 317.013 245.508 312.289L245.934 310.399L246.787 308.509L128.437 307.155L27.847 306.777L27.506 208.129L27.2787 109.608L171.856 109.86L316.546 110.238L316.887 143.876V184.255H321.377C324.332 184.255 339.961 189.924 344.393 191.814C346.212 192.696 344.393 180.538 344.393 118.931V53.5435L341.666 47.2442C338.824 40.4409 333.596 34.6455 327.685 31.8738C325.071 30.7399 318.024 30.236 303.021 30.236H282.107L281.652 42.4567C281.084 56.0633 279.72 60.4728 273.696 66.6462C263.239 77.481 245.167 73.4495 238.802 58.961C236.87 54.5514 236.415 51.0238 236.415 41.8268V30.236H212.546H188.678V42.2047C188.678 51.6537 188.223 55.3073 186.518 58.961C177.88 77.607 155.148 77.607 146.509 58.961C144.804 55.3073 144.35 51.6537 144.35 42.2047V30.236H126.164H107.978V38.4251C107.978 52.0317 106.046 59.0869 100.704 65.0083C92.4066 74.3314 81.0405 75.4653 71.6066 67.906C64.7869 62.3626 62.5137 56.1893 62.5137 41.8268V30.236H41.259C24.7781 30.362 18.9814 30.7399 15.9126 32.2518Z" fill="black"/>
<path d="M121.646 132.538C121.418 133.42 121.305 141.861 121.532 151.184L121.873 168.192L138.24 167.814L154.721 167.436V149.168V131.026H138.354C126.192 131.026 121.873 131.404 121.646 132.538Z" fill="black"/>
<path d="M185.637 149.42L185.978 167.688L202.232 167.94L218.372 168.192V149.546V131.026H201.891H185.296L185.637 149.42Z" fill="black"/>
<path d="M249.06 148.664C249.06 158.365 249.174 166.68 249.401 167.058C249.629 167.94 252.811 168.066 270.997 167.688L282.022 167.562V149.294V131.026H265.541H249.06V148.664ZM278.612 138.081C278.612 138.459 276.566 141.483 274.066 144.632C271.679 147.908 268.383 153.2 266.905 156.223C263.609 163.153 260.54 164.16 257.585 159.121C256.448 157.231 254.516 154.585 253.379 153.2C250.765 150.05 250.765 147.404 253.379 147.278C260.654 146.648 261.336 146.774 260.767 148.286C259.744 151.31 262.018 149.924 265.541 145.514C270.088 139.971 278.612 135.057 278.612 138.081Z" fill="black"/>
<path d="M58.1094 208.507V226.776H74.5903H91.0711V208.507V190.239H74.5903H58.1094V208.507Z" fill="black"/>
<path d="M121.759 208.507V226.776H138.24H154.721V208.507V190.239H138.24H121.759V208.507ZM151.766 196.287C152.107 196.791 150.402 199.436 148.015 201.956C145.742 204.476 142.787 208.633 141.536 211.279C136.649 222.114 134.035 222.87 129.034 215.437C127.215 212.665 125.396 210.397 124.942 210.397C124.373 210.397 124.033 209.641 124.033 208.633C124.033 205.232 130.852 204.098 133.125 207.248C134.376 208.885 134.83 208.633 136.876 205.862C139.718 201.83 147.674 195.279 149.72 195.279C150.516 195.279 151.425 195.783 151.766 196.287Z" fill="black"/>
<path d="M185.41 208.507V226.776H201.891H218.372V208.507V190.239H201.891H185.41V208.507Z" fill="black"/>
<path d="M248.492 266.776V285.044H264.973C264.973 285.044 274.018 282.34 277.049 277.328C278.169 275.476 277.475 277.328 279.606 273.076C281.738 268.824 281.169 269.926 281.453 266.776C281.738 263.627 281.453 262.209 280.033 258.902C278.612 255.595 277.475 254.65 277.475 254.65C277.475 254.65 275.344 251.815 272.361 249.925C269.377 248.036 264.973 248.508 264.973 248.508H248.492V266.776Z" fill="black"/>
<path d="M58.1094 266.461V284.729H74.5903H91.0711V266.461V248.193H74.5903H58.1094V266.461Z" fill="black"/>
<path d="M121.759 266.461V284.729H138.24H154.721V266.461V248.193H138.24H121.759V266.461Z" fill="black"/>
<path d="M185.41 266.778V285.046H201.891H218.372V266.778V248.51H201.891H185.41V266.778ZM215.416 254.557C215.757 255.061 214.053 257.707 211.666 260.227C209.392 262.746 206.437 266.904 205.187 269.55C200.3 280.385 197.685 281.14 192.684 273.707C190.866 270.936 189.047 268.668 188.592 268.668C188.024 268.668 187.683 267.912 187.683 266.904C187.683 263.502 194.503 262.368 196.776 265.518C198.026 267.156 198.481 266.904 200.527 264.132C203.368 260.101 211.325 253.549 213.371 253.549C214.166 253.549 215.075 254.053 215.416 254.557Z" fill="black"/>
<path d="M57.541 149.61V167.878H74.0219H90.5028V149.61V131.342H74.0219H57.541V149.61ZM87.5476 137.389C87.8886 137.893 86.1836 140.539 83.7968 143.059C81.5235 145.579 78.5683 149.736 77.3181 152.382C72.4306 163.217 69.8164 163.973 64.8153 156.539C62.9968 153.768 61.1782 151.5 60.7235 151.5C60.1552 151.5 59.8142 150.744 59.8142 149.736C59.8142 146.335 66.6339 145.201 68.9071 148.35C70.1574 149.988 70.6121 149.736 72.658 146.964C75.4995 142.933 83.4558 136.382 85.5017 136.382C86.2973 136.382 87.2066 136.886 87.5476 137.389Z" fill="black"/>
<path d="M248.492 208.194V226.462C248.492 226.462 258.992 229.098 264.973 226.462C269.562 224.439 271.495 221.748 274.918 217.801C277.855 214.413 279.835 212.537 281.453 208.194C283.911 201.601 281.453 189.926 281.453 189.926H264.973H248.492V208.194Z" fill="black"/>
</svg>
